<?xml version="1.0" encoding="UTF-8" standalone="no"?><!DOCTYPE svg PUBLIC "-//W3C//DTD SVG 1.1//EN" "http://www.w3.org/Graphics/SVG/1.1/DTD/svg11.dtd"><svg width="100%" height="100%" viewBox="0 0 464 464" version="1.1" xmlns="http://www.w3.org/2000/svg" xmlns:xlink="http://www.w3.org/1999/xlink" xml:space="preserve" xmlns:serif="http://www.serif.com/" style="fill-rule:evenodd;clip-rule:evenodd;stroke-linejoin:round;stroke-miterlimit:2;"><path d="M368,428c0,-19.883 -60.891,-36 -136,-36c-75.109,0 -136,16.117 -136,36c0,19.883 60.891,36 136,36c75.109,0 136,-16.117 136,-36Z" style="fill:#adabac;fill-rule:nonzero;"/><path d="M216,160l32,0l0,256c0,8.836 -7.164,16 -16,16c-8.836,0 -16,-7.164 -16,-16l0,-256Z" style="fill:#494342;fill-rule:nonzero;"/><path d="M328,96c0,53.02 -42.98,96 -96,96c-53.02,0 -96,-42.98 -96,-96c0,-53.02 42.98,-96 96,-96c53.02,0 96,42.98 96,96Z" style="fill:#d1973b;fill-rule:nonzero;"/><path d="M296,96c0,35.348 -28.652,64 -64,64c-35.348,0 -64,-28.652 -64,-64c0,-35.348 28.652,-64 64,-64c35.348,0 64,28.652 64,64Z" style="fill:#f2eb62;fill-rule:nonzero;"/></svg>