<?xml version="1.0" encoding="UTF-8" standalone="no"?>
<!-- Created with Inkscape (http://www.inkscape.org/) -->

<svg
   width="132.29167mm"
   height="132.29166mm"
   viewBox="0 0 132.29167 132.29166"
   version="1.1"
   id="svg5"
   xml:space="preserve"
   xmlns="http://www.w3.org/2000/svg"
   xmlns:svg="http://www.w3.org/2000/svg"><defs
     id="defs2" /><g
     id="layer1"
     transform="translate(-38.307557,-62.218577)"><g
       style="clip-rule:evenodd;fill-rule:evenodd;stroke-miterlimit:10"
       id="g387"
       transform="matrix(0.26458333,0,0,0.26458333,38.307559,62.218579)"><path
         d="M 460,500 H 40 C 17.91,500 0,482.09 0,460 V 40 C 0,17.91 17.91,0 40,0 h 420 c 22.09,0 40,17.91 40,40 v 420 c 0,22.09 -17.91,40 -40,40 z"
         style="fill:#217d2a;fill-rule:nonzero"
         id="path375" /><path
         d="m 332.28,126.44 -7.36,35.79 h 89.56 l -12.01,58.41 H 312.92 L 288.63,338.87 H 220.41 L 244.7,220.64 H 208.01 L 164.48,432.5 H 96.51 L 140.05,220.64 H 49.35 L 61.13,162.23 H 256.7 L 276.17,67.5 h 197.35 l -12.11,58.94 z"
         style="fill:#ffffff;fill-rule:nonzero;stroke:#ffffff;stroke-width:2px"
         id="path377" /></g></g></svg>
