<?xml version="1.0" encoding="UTF-8" standalone="no"?>
<!-- Created with Inkscape (http://www.inkscape.org/) -->

<svg
   width="34.660416mm"
   height="26.326042mm"
   viewBox="0 0 34.660416 26.326042"
   version="1.1"
   id="svg5"
   xml:space="preserve"
   inkscape:version="1.2 (dc2aeda, 2022-05-15)"
   sodipodi:docname="logo_simple.svg"
   xmlns:inkscape="http://www.inkscape.org/namespaces/inkscape"
   xmlns:sodipodi="http://sodipodi.sourceforge.net/DTD/sodipodi-0.dtd"
   xmlns="http://www.w3.org/2000/svg"
   xmlns:svg="http://www.w3.org/2000/svg"><sodipodi:namedview
     id="namedview7"
     pagecolor="#ffffff"
     bordercolor="#000000"
     borderopacity="0.25"
     inkscape:showpageshadow="2"
     inkscape:pageopacity="0.0"
     inkscape:pagecheckerboard="0"
     inkscape:deskcolor="#d1d1d1"
     inkscape:document-units="mm"
     showgrid="false"
     inkscape:zoom="0.84096521"
     inkscape:cx="83.832244"
     inkscape:cy="316.30322"
     inkscape:window-width="1536"
     inkscape:window-height="960"
     inkscape:window-x="0"
     inkscape:window-y="263"
     inkscape:window-maximized="0"
     inkscape:current-layer="layer1" /><defs
     id="defs2" /><g
     inkscape:label="Layer 1"
     inkscape:groupmode="layer"
     id="layer1"
     transform="translate(-16.333987,-13.264946)"><g
       style="fill:none"
       id="g615"
       transform="matrix(0.26458333,0,0,0.26458333,16.333987,13.264946)"
       inkscape:export-filename="no_results.svg"
       inkscape:export-xdpi="96"
       inkscape:export-ydpi="96"><path
         d="m 86.8577,58.5527 c 3.3098,-1.5453 6.343,-3.6616 8.9382,-6.2567 2.5951,-2.5952 4.7111,-5.6284 6.2571,-8.9381 l -4.3696,-6.0859 -6.086,-4.3694 -10.8386,5.1605 -4.3564,10.0344 4.5207,5.9346 z"
         fill="#985626"
         id="path456" /><path
         d="m 91.5974,32.9026 -3.2227,-4.9393 -7.2326,-5.516 c -3.3098,1.5453 -6.3431,3.6616 -8.9382,6.2567 -2.5952,2.5952 -4.7116,5.6284 -6.2569,8.9381 l 5.0396,7.1085 5.4158,3.3468 z"
         fill="#7b441d"
         id="path458" /><path
         d="m 78.9121,61.0436 c 1.025,-0.1764 2.0426,-0.4034 3.0484,-0.6819 1.6838,-0.4664 3.3218,-1.0733 4.8974,-1.8089 l -10.4553,-10.4553 -3.4964,1.7218 -1.7219,3.4965 2.6088,3.9588 z"
         fill="#eeeef0"
         id="path460" /><path
         d="m 103.862,38.4606 c 0.278,-1.0058 0.505,-2.0234 0.682,-3.0484 l -3.402,-5.2248 -4.3262,-2.503 -3.6641,1.8895 -1.5541,3.3287 10.4554,10.4553 c 0.735,-1.5756 1.342,-3.2136 1.809,-4.8973 z"
         fill="#eeeef0"
         id="path462" /><path
         d="m 89.088,19.9564 c -1.025,0.1764 -2.0426,0.4034 -3.0483,0.6819 -1.6838,0.4664 -3.3218,1.0732 -4.8975,1.8089 l 10.4554,10.4553 5.2183,-5.2183 -2.9523,-4.7756 z"
         fill="#dddde1"
         id="path464" /><path
         d="M 76.4026,48.0974 65.9472,37.6422 c -0.7356,1.5756 -1.3425,3.2135 -1.8088,4.8973 -0.2786,1.0058 -0.5056,2.0233 -0.682,3.0484 l 3.4061,5.1381 4.3218,2.5897 z"
         fill="#dddde1"
         id="path466" /><path
         d="m 104.064,22.4468 -0.402,-1.6083 -4.9086,3.1336 -1.9377,3.7123 7.7283,7.7277 c 0.739,-4.2955 0.581,-8.7222 -0.48,-12.9653 z"
         fill="#7b441d"
         id="path468" /><path
         d="m 102.053,20.4364 c -2.4982,-0.6247 -5.0598,-0.9365 -7.6213,-0.9365 -1.7887,0 -3.5773,0.1527 -5.3438,0.4566 l 7.7279,7.7278 6.8462,-6.8458 z"
         fill="#633414"
         id="path470" /><path
         d="m 65.9468,60.5637 c 4.2429,1.0608 8.6698,1.2191 12.9653,0.4799 l -7.7279,-7.7278 -3.8553,1.5347 -2.9906,5.3111 z"
         fill="#7b441d"
         id="path472" /><path
         d="M 71.1842,53.3158 63.4563,45.588 c -0.7392,4.2955 -0.5809,8.7222 0.4798,12.9654 l 0.4022,1.6082 z"
         fill="#633414"
         id="path474" /><path
         d="m 80.5159,45.7152 2.5491,2.5491 1.7399,-1.7398 -2.5515,-2.5515 1.7376,-1.7422 2.5539,2.5538 1.7398,-1.7398 -2.5562,-2.5562 1.7376,-1.7423 2.5585,2.5585 1.7399,-1.7398 -2.5609,-2.5609 3.2434,-3.2521 -0.8494,-0.8495 -8.4848,6.7102 -6.7102,8.4848 0.8699,0.8699 z"
         fill="#dddde1"
         id="path476" /><path
         d="m 76.4026,48.0974 15.1951,-15.1949 -0.8905,-0.8905 -3.2433,3.2522 -2.5697,-2.5697 -1.7399,1.7399 2.5721,2.572 -1.7377,1.7423 -2.5744,-2.5744 -1.7398,1.7399 2.5767,2.5766 -1.7376,1.7424 -2.579,-2.5792 -1.7399,1.7399 2.5815,2.5814 -3.2434,3.2522 z"
         fill="#b8b8be"
         id="path478" /><path
         d="m 43.8753,23.4637 6.2658,-4.5526 5.7055,1.8885 1.4808,6.2665 c -0.4633,0.6089 -0.9698,1.1911 -1.5201,1.7414 -1.8422,1.8421 -4.0356,3.2048 -6.4288,4.0278 l -5.5036,-3.3904 z"
         fill="#f6f9f9"
         id="path480" /><path
         d="m 43.8749,23.4636 -6.2663,-4.5526 2.3936,-7.3663 h 7.7453 l 2.3936,7.3663 z"
         fill="#135772"
         id="path482" /><path
         d="m 37.6086,18.9109 6.2661,4.5526 v 5.9811 L 38.3828,32.839 C 35.9851,32.0164 33.7875,30.6524 31.9424,28.8072 31.3965,28.2613 30.8937,27.684 30.4335,27.0804 l 1.4746,-6.3252 z"
         fill="#f6f9f9"
         id="path484" /><path
         d="m 49.3784,32.835 c -1.7475,0.601 -3.6013,0.9148 -5.5037,0.9148 -1.898,0 -3.7478,-0.3124 -5.4919,-0.9108 l 5.4919,-3.3944 z"
         fill="#135772"
         id="path486" /><path
         d="m 40.0022,11.5445 -2.3935,7.3663 -5.7006,1.8443 -4.9036,-4.2601 c 0.0744,-3.3879 1.1418,-6.60984 3.0643,-9.33077 l 6.4495,-0.48296 z"
         fill="#ececef"
         id="path488" /><path
         d="M 47.7475,11.5446 H 40.0021 L 36.5183,6.68138 38.9728,0.719488 C 40.5418,0.24557 42.1894,0 43.8748,0 c 1.6875,0 3.3371,0.246097 4.9079,0.721138 l 2.4982,5.984912 z"
         fill="#f6f9f9"
         id="path490" /><path
         d="m 55.8466,20.7996 -5.7056,-1.8885 -2.3934,-7.3663 3.5333,-4.8385 6.4184,0.48428 c 1.9174,2.72475 2.9787,5.94972 3.0463,9.33952 z"
         fill="#ececef"
         id="path492" /><path
         d="m 30.4335,27.0807 c -2.227,-2.9206 -3.4336,-6.4701 -3.4336,-10.2056 0,-0.1268 0.0018,-0.2534 0.0046,-0.3799 l 4.9036,4.2602 z"
         fill="#135772"
         id="path494" /><path
         d="m 30.0687,7.16452 c 0.5546,-0.78494 1.1802,-1.52831 1.8737,-2.22181 1.9955,-1.9955 4.4028,-3.42952 7.0302,-4.223106 L 36.5182,6.68149 Z"
         fill="#135772"
         id="path496" /><path
         d="M 57.6991,7.19045 51.2807,6.70617 48.7826,0.721191 c 2.6252,0.793909 5.0304,2.227349 7.0245,4.221399 0.7012,0.70121 1.3328,1.45329 1.892,2.24786 z"
         fill="#135772"
         id="path498" /><path
         d="m 60.7457,16.53 c 0.0023,0.1149 0.0042,0.2298 0.0042,0.3451 0,3.7292 -1.2026,7.2731 -3.4225,10.1909 l -1.4807,-6.2665 z"
         fill="#135772"
         id="path500" /><path
         d="m 43.8753,23.4637 6.2658,-4.5526 5.7055,1.8885 1.4808,6.2665 c -0.4633,0.6089 -0.9698,1.1911 -1.5201,1.7414 -1.8422,1.8421 -4.0356,3.2048 -6.4288,4.0278 l -5.5036,-3.3904 z"
         fill="#ececef"
         id="path502" /><path
         d="m 55.8466,20.7996 -5.7056,-1.8885 -2.3934,-7.3663 3.5333,-4.8385 6.4184,0.48428 c 1.9174,2.72475 2.9787,5.94972 3.0463,9.33952 z"
         fill="#dddddf"
         id="path504" /><path
         d="M 57.6992,7.19045 51.2808,6.70617 48.7827,0.721191 c 2.6252,0.793909 5.0304,2.227349 7.0245,4.221399 0.7012,0.70121 1.3329,1.45329 1.892,2.24786 z"
         fill="#093f61"
         id="path506" /><path
         d="m 60.7457,16.5298 c 0.0023,0.1149 0.0042,0.2298 0.0042,0.345 0,3.7292 -1.2026,7.2732 -3.4225,10.1909 l -1.4807,-6.2664 z"
         fill="#093f61"
         id="path508" /><path
         d="m 43.8749,33.7498 c 1.9023,0 3.756,-0.3138 5.5036,-0.9148 l -5.5036,-3.3904 z"
         fill="#093f61"
         id="path510" /><path
         d="M 51.2809,6.70612 48.7828,0.721138 C 47.2119,0.246097 45.5623,0 43.8749,0 v 11.5446 h 3.8727 z"
         fill="#ececef"
         id="path512" /><path
         d="M 47.7475,11.5447 H 43.8749 V 23.4636 L 50.1411,18.911 Z"
         fill="#093f61"
         id="path514" /><path
         d="m 44.9205,41.8182 c -0.2636,4.7197 -2.0037,9.1319 -4.7461,12.6123 -0.1846,0.2374 -2.9795,-2.1885 -3.1641,-1.9775 -0.3954,0.4746 1.8457,3.5595 1.424,3.9814 -3.7705,3.7705 -8.9737,6.1698 -14.6162,6.4862 -0.4482,0 -0.8702,-2.5575 -1.3184,-2.5575 -0.4481,0 -0.8702,2.5575 -1.3183,2.5575 C 15.5388,62.6042 10.3356,60.2049 6.56517,56.4344 6.3015,56.1707 8.70091,53.2704 8.43724,52.9803 8.12084,52.6112 5.14135,54.8523 4.82494,54.4305 2.08267,50.9501 0.342529,46.5379 0.0788574,41.8182 c 0,-0.4481 2.5575226,-0.8702 2.5575226,-1.3183 0,-0.4482 -2.5575226,-0.8702 -2.5575226,-1.3184 C 0.342441,34.4619 2.08258,30.0497 4.82494,26.5692 5.16772,26.1211 8.1472,28.3357 8.51625,27.9404 8.72728,27.703 6.32796,24.8027 6.56517,24.5653 10.3356,20.7948 15.5388,18.3955 21.1814,18.0791 c 0.4482,0 0.8703,2.5575 1.3183,2.5575 0.4482,0 0.8702,-2.5575 1.3184,-2.5575 5.6425,0.3164 10.8457,2.7157 14.6162,6.4862 0.2372,0.2374 -2.1621,3.1377 -1.9512,3.3751 0.369,0.4218 3.3485,-1.8193 3.6913,-1.3712 2.7423,3.4805 4.4824,7.8927 4.7461,12.6123 0,0.4482 -2.5575,0.8702 -2.5575,1.3184 0,0.4481 2.5575,0.8702 2.5575,1.3183 z"
         fill="#fea832"
         id="path516" /><path
         d="m 44.9205,41.8182 c -0.2636,4.7197 -2.0037,9.1319 -4.7461,12.6123 -0.1845,0.2374 -2.9794,-2.1885 -3.164,-1.9775 -0.3954,0.4746 1.8457,3.5595 1.4239,3.9814 -3.7705,3.7705 -8.9736,6.1698 -14.6162,6.4862 -0.4481,0 -0.8702,-2.5575 -1.3183,-2.5575 V 20.6366 c 0.4481,0 0.8702,-2.5575 1.3183,-2.5575 5.6426,0.3164 10.8458,2.7157 14.6162,6.4862 0.2372,0.2374 -2.1621,3.1377 -1.9512,3.3751 0.3691,0.4218 3.3486,-1.8193 3.6913,-1.3712 2.7423,3.4805 4.4825,7.8927 4.7461,12.6123 0,0.4482 -2.5575,0.8702 -2.5575,1.3184 0,0.4481 2.5575,0.8702 2.5575,1.3183 z"
         fill="#fe9923"
         id="path518" /><path
         d="M 44.9206,41.8183 H 34.5322 c 0.3164,4.8778 2.4257,9.3428 5.6424,12.6123 -0.5536,0.712 -1.1337,1.3712 -1.7401,2.0039 -3.7705,-3.7705 -6.2226,-8.9472 -6.539,-14.6162 h -8.0773 v 21.1024 c -0.4481,0.0264 -0.8702,0.0792 -1.3183,0.0792 -0.4482,0 -0.8702,-0.0528 -1.3184,-0.0792 V 41.8183 H 13.1044 C 12.788,47.4873 10.3358,52.6641 6.56542,56.4345 5.95906,55.8017 5.3789,55.1425 4.82527,54.4306 8.04198,51.1611 10.1513,46.6961 10.4678,41.8183 H 0.0791893 C 0.0528222,41.3702 0,40.9481 0,40.5 0,40.0518 0.0528222,39.6298 0.0791893,39.1816 H 10.4677 C 10.1513,34.3038 8.04198,29.8388 4.82519,26.5693 c 0.55362,-0.712 1.13378,-1.3712 1.74014,-2.0039 3.77047,3.7705 6.22267,8.9473 6.53897,14.6162 h 8.0773 V 18.0792 C 21.6298,18.0528 22.0518,18 22.4999,18 c 0.4481,0 0.8702,0.0528 1.3183,0.0792 v 21.1024 h 8.0773 c 0.3164,-5.669 2.7685,-10.8458 6.5389,-14.6162 0.6064,0.6328 1.1865,1.292 1.7402,2.0039 -3.2167,3.2695 -5.3261,7.7345 -5.6424,12.6123 h 10.3884 c 0.0264,0.4482 0.0792,0.8702 0.0792,1.3184 0,0.4481 -0.0528,0.8702 -0.0792,1.3183 z"
         fill="#bf6015"
         id="path520" /><path
         d="M 44.9205,41.8183 H 34.532 c 0.3165,4.8778 2.4257,9.3428 5.6425,12.6123 -0.5536,0.712 -1.1338,1.3712 -1.7401,2.0039 -3.7705,-3.7705 -6.2227,-8.9472 -6.539,-14.6162 h -8.0773 v 21.1024 c -0.4481,0.0264 -0.8702,0.0792 -1.3183,0.0792 V 18 c 0.4481,0 0.8702,0.0528 1.3183,0.0792 v 21.1024 h 8.0772 c 0.3164,-5.669 2.7686,-10.8458 6.539,-14.6162 0.6064,0.6328 1.1865,1.292 1.7401,2.0039 -3.2167,3.2695 -5.326,7.7345 -5.6424,12.6123 h 10.3885 c 0.0264,0.4482 0.0792,0.8702 0.0792,1.3184 0,0.4481 -0.0528,0.8702 -0.0792,1.3183 z"
         fill="#994c10"
         id="path522" /><path
         d="m 75.5573,3 c -2.6756,0 -5.2942,0.74134 -7.5727,2.14456 -2.278,1.40278 -4.119,3.4072 -5.3236,5.79684 -1.1435,2.2677 -2.1553,4.6301 -3.0087,7.0219 -0.8926,2.5025 -1.629,5.0894 -2.1896,7.6874 l -2.0522,9.515 -11.5257,11.5258 2.4235,2.4235 11.5257,-11.5257 9.5151,-2.0522 c 5.101,-1.1002 10.0502,-2.8493 14.7098,-5.1983 2.3891,-1.2042 4.3935,-3.0452 5.7963,-5.3237 1.4028,-2.2784 2.1446,-4.897 2.1446,-7.5727 C 89.9998,9.47876 83.521,3 75.5573,3 Z"
         fill="#3f52e9"
         id="path524" /><path
         d="m 45.0966,47.9032 1.2117,1.2117 11.5257,-11.5257 9.5151,-2.0522 c 5.101,-1.1001 10.0502,-2.8493 14.7093,-5.1982 2.3896,-1.2047 4.3941,-3.0453 5.7968,-5.3237 1.4028,-2.2785 2.1446,-4.897 2.1446,-7.5727 0,-3.9816 -1.6197,-7.59235 -4.2347,-10.20778 z"
         fill="#2e3192"
         id="path526" /><path
         d="m 83.3421,9.65774 c -1.9942,-1.9946 -4.748,-3.23001 -7.7847,-3.23001 -4.1838,0 -7.9525,2.32086 -9.8356,6.05657 -1.0796,2.141 -2.0352,4.3721 -2.8408,6.63 -0.8426,2.3638 -1.5384,4.806 -2.0678,7.259 l -1.5982,7.4115 7.4115,-1.5982 c 4.8167,-1.0391 9.4897,-2.6904 13.889,-4.9086 3.7357,-1.8831 6.0566,-5.6518 6.0566,-9.8356 0,-3.0367 -1.2354,-5.7905 -3.23,-7.78466 z"
         fill="#f4f5f7"
         id="path528" /><path
         d="m 59.2146,33.7853 7.412,-1.5987 c 4.8167,-1.039 9.4896,-2.6904 13.889,-4.9086 3.7357,-1.883 6.0566,-5.6517 6.0566,-9.8355 0,-3.0368 -1.2355,-5.7906 -3.2301,-7.78515 z"
         fill="#c8d6f2"
         id="path530" /><path
         d="M 36.2988,61.4998 31.5,56.701 42.9258,45.2753 h 4.7988 v 4.7988 z"
         fill="#ff9098"
         id="path532" /><path
         d="M 36.2988,61.4998 47.7246,50.0741 V 45.2753 L 33.8994,59.1004 Z"
         fill="#fb4b72"
         id="path534" /><path
         d="m 131,95.2046 c 0,2.3318 -1.964,4.2954 -4.295,4.2954 -1.228,0 -2.332,-0.4909 -3.191,-1.35 L 109.768,83.1773 c -0.491,-0.491 -0.491,-1.2273 0,-1.7182 l 3.191,-3.191 c 0.491,-0.4909 1.227,-0.4909 1.718,0 l 14.973,13.8683 c 0.859,0.7364 1.35,1.9636 1.35,3.0682 z"
         fill="#b06328"
         id="path536" /><path
         d="m 110.13,81.0599 2.43,-2.4298 -3.645,-3.6447 -2.43,2.4298 z"
         fill="#b0c4d8"
         id="path538" /><path
         d="m 110.75,79.25 0.613,0.6136 1.228,-1.2272 -3.682,-3.6818 -2.455,2.4546 1.841,1.8408 c 0.737,-0.7364 1.718,-0.7364 2.455,0 z"
         fill="#99b4cd"
         id="path540" /><path
         d="M 95.409,45.5 C 85.2228,45.5 77,53.7228 77,63.909 c 0,10.1863 8.2228,18.4091 18.409,18.4091 10.186,0 18.409,-8.2228 18.409,-18.4091 0,-10.1862 -8.223,-18.409 -18.409,-18.409 z m 0,33.1364 c -8.1,0 -14.7272,-6.6272 -14.7272,-14.7272 0,-8.1001 6.6272,-14.7274 14.7272,-14.7274 8.1,0 14.727,6.6272 14.727,14.7272 0,8.1 -6.627,14.7274 -14.727,14.7274 z"
         fill="#c4d7e5"
         id="path542" /><path
         d="m 95.409,78.6362 c 8.134,0 14.727,-6.5936 14.727,-14.7272 0,-8.1336 -6.593,-14.7272 -14.727,-14.7272 -8.1336,0 -14.7272,6.5936 -14.7272,14.7272 0,8.1336 6.5936,14.7272 14.7272,14.7272 z"
         fill="#70b7e5"
         id="path544" /><path
         d="m 88.1682,65.6272 c 0.6136,-4.6636 4.2954,-8.3455 8.959,-8.9591 H 97.25 c 2.0863,-0.2454 2.209,-3.1909 0.2454,-3.559 -1.2272,-0.2454 -2.4546,-0.2454 -3.6818,-0.1228 -4.7864,0.7364 -8.591,4.541 -9.2046,9.2046 -0.2454,1.2272 -0.1228,2.5772 0.1228,3.6818 0.3682,2.0864 3.3136,1.841 3.559,-0.2454 -0.1226,0.1226 -0.1226,-1e-4 -0.1226,-1e-4 z"
         fill="#92c5eb"
         id="path546" /><path
         d="m 81.909,65.1364 c 0,-8.1 6.6272,-14.7273 14.7272,-14.7273 3.8048,0 7.1178,1.4728 9.8178,3.6818 -2.7,-3.0682 -6.6268,-4.909 -11.045,-4.909 -8.1,0 -14.7272,6.6272 -14.7272,14.7272 0,4.4182 1.9636,8.3454 4.909,11.0454 -2.209,-2.7 -3.6818,-6.0136 -3.6818,-9.8181 z"
         fill="#4c9cd6"
         id="path548" /><path
         d="m 95.4091,82.3182 c 10.1859,0 18.4089,-8.2227 18.4089,-18.409 -0.614,0 -1.227,0.4909 -1.227,1.2272 -0.246,4.1728 -2.087,7.9773 -4.909,10.8 -2.823,2.9454 -6.75,4.7864 -11.0456,5.1546 -0.7364,0 -1.2273,0.6136 -1.2273,1.2272 z"
         fill="#b0c9db"
         id="path550" /><path
         d="M 95.409,45.5 C 85.2228,45.5 77,53.7228 77,63.909 c 0.6136,0 1.2272,-0.4909 1.2272,-1.2272 0.2456,-4.05 1.9638,-7.7318 4.541,-10.4318 2.9454,-3.0682 6.9954,-5.1546 11.4136,-5.5228 0.7364,0 1.2272,-0.6136 1.2272,-1.2272 z"
         fill="#e2e7f0"
         id="path552" /><path
         d="M 129.527,92.0136 128.791,91.4 c 0.613,0.7364 0.982,1.7182 0.982,2.7 0,1.5954 -1.964,2.209 -3.069,1.1045 L 113.818,82.3182 c -0.736,-0.7364 -1.841,-0.7364 -2.577,0 l -1.227,1.2272 13.377,14.359 c 0.736,0.7364 1.718,1.35 2.7,1.4728 1.35,0.1228 2.7,-0.3682 3.559,-1.2272 0.859,-0.8591 1.35,-2.2091 1.227,-3.5591 0,-0.9819 -0.613,-1.8409 -1.35,-2.5773 z"
         fill="#a35425"
         id="path554" /><path
         d="m 116.886,83.5455 c -0.122,0 -0.368,0 -0.491,-0.1228 l -3.068,-3.0682 c -0.245,-0.2454 -0.245,-0.6136 0,-0.859 0.246,-0.2455 0.614,-0.2455 0.859,0 l 3.068,3.0682 c 0.246,0.2454 0.246,0.6136 0,0.859 0,0.1228 -0.245,0.1228 -0.368,0.1228 z"
         fill="#c97629"
         id="path556" /></g></g></svg>
