<svg width="131" height="100" viewBox="0 0 131 100" fill="none" xmlns="http://www.w3.org/2000/svg">
<path d="M86.8577 58.5527C90.1675 57.0074 93.2007 54.8911 95.7959 52.296C98.391 49.7008 100.507 46.6676 102.053 43.3579L97.6834 37.272L91.5974 32.9026L80.7588 38.0631L76.4024 48.0975L80.9231 54.0321L86.8577 58.5527Z" fill="#985626"/>
<path d="M91.5974 32.9026L88.3747 27.9633L81.1421 22.4473C77.8323 23.9926 74.799 26.1089 72.2039 28.704C69.6087 31.2992 67.4923 34.3324 65.947 37.6421L70.9866 44.7506L76.4024 48.0974L91.5974 32.9026Z" fill="#7B441D"/>
<path d="M78.9121 61.0436C79.9371 60.8672 80.9547 60.6402 81.9605 60.3617C83.6443 59.8953 85.2823 59.2884 86.8579 58.5528L76.4026 48.0975L72.9062 49.8193L71.1843 53.3158L73.7931 57.2746L78.9121 61.0436Z" fill="#EEEEF0"/>
<path d="M103.862 38.4606C104.14 37.4548 104.367 36.4372 104.544 35.4122L101.142 30.1874L96.8158 27.6844L93.1517 29.5739L91.5976 32.9026L102.053 43.3579C102.788 41.7823 103.395 40.1443 103.862 38.4606Z" fill="#EEEEF0"/>
<path d="M89.088 19.9564C88.063 20.1328 87.0454 20.3598 86.0397 20.6383C84.3559 21.1047 82.7179 21.7115 81.1422 22.4472L91.5976 32.9025L96.8159 27.6842L93.8636 22.9086L89.088 19.9564Z" fill="#DDDDE1"/>
<path d="M76.4026 48.0974L65.9472 37.6422C65.2116 39.2178 64.6047 40.8557 64.1384 42.5395C63.8598 43.5453 63.6328 44.5628 63.4564 45.5879L66.8625 50.726L71.1843 53.3157L76.4026 48.0974Z" fill="#DDDDE1"/>
<path d="M104.064 22.4468L103.662 20.8385L98.7534 23.9721L96.8157 27.6844L104.544 35.4121C105.283 31.1166 105.125 26.6899 104.064 22.4468Z" fill="#7B441D"/>
<path d="M102.053 20.4364C99.5548 19.8117 96.9932 19.4999 94.4317 19.4999C92.643 19.4999 90.8544 19.6526 89.0879 19.9565L96.8158 27.6843L103.662 20.8385L102.053 20.4364Z" fill="#633414"/>
<path d="M65.9468 60.5637C70.1897 61.6245 74.6166 61.7828 78.9121 61.0436L71.1842 53.3158L67.3289 54.8505L64.3383 60.1616L65.9468 60.5637Z" fill="#7B441D"/>
<path d="M71.1842 53.3158L63.4563 45.588C62.7171 49.8835 62.8754 54.3102 63.9361 58.5534L64.3383 60.1616L71.1842 53.3158Z" fill="#633414"/>
<path d="M80.5159 45.7152L83.065 48.2643L84.8049 46.5245L82.2534 43.973L83.991 42.2308L86.5449 44.7846L88.2847 43.0448L85.7285 40.4886L87.4661 38.7463L90.0246 41.3048L91.7645 39.565L89.2036 37.0041L92.447 33.752L91.5976 32.9025L83.1128 39.6127L76.4026 48.0975L77.2725 48.9674L80.5159 45.7152Z" fill="#DDDDE1"/>
<path d="M76.4026 48.0974L91.5977 32.9025L90.7072 32.012L87.4639 35.2642L84.8942 32.6945L83.1543 34.4344L85.7264 37.0064L83.9887 38.7487L81.4143 36.1743L79.6745 37.9142L82.2512 40.4908L80.5136 42.2332L77.9346 39.654L76.1947 41.3939L78.7762 43.9753L75.5328 47.2275L76.4026 48.0974Z" fill="#B8B8BE"/>
<path d="M43.8753 23.4637L50.1411 18.9111L55.8466 20.7996L57.3274 27.0661C56.8641 27.675 56.3576 28.2572 55.8073 28.8075C53.9651 30.6496 51.7717 32.0123 49.3785 32.8353L43.8749 29.4449L43.8753 23.4637Z" fill="#F6F9F9"/>
<path d="M43.8749 23.4636L37.6086 18.911L40.0022 11.5447H47.7475L50.1411 18.911L43.8749 23.4636Z" fill="#135772"/>
<path d="M37.6086 18.9109L43.8747 23.4635V29.4446L38.3828 32.839C35.9851 32.0164 33.7875 30.6524 31.9424 28.8072C31.3965 28.2613 30.8937 27.684 30.4335 27.0804L31.9081 20.7552L37.6086 18.9109Z" fill="#F6F9F9"/>
<path d="M49.3784 32.835C47.6309 33.436 45.7771 33.7498 43.8747 33.7498C41.9767 33.7498 40.1269 33.4374 38.3828 32.839L43.8747 29.4446L49.3784 32.835Z" fill="#135772"/>
<path d="M40.0022 11.5445L37.6087 18.9108L31.9081 20.7551L27.0045 16.495C27.0789 13.1071 28.1463 9.88516 30.0688 7.16423L36.5183 6.68127L40.0022 11.5445Z" fill="#ECECEF"/>
<path d="M47.7475 11.5446H40.0021L36.5183 6.68138L38.9728 0.719488C40.5418 0.24557 42.1894 0 43.8748 0C45.5623 0 47.2119 0.246097 48.7827 0.721138L51.2809 6.70605L47.7475 11.5446Z" fill="#F6F9F9"/>
<path d="M55.8466 20.7996L50.141 18.9111L47.7476 11.5448L51.2809 6.7063L57.6993 7.19058C59.6167 9.91533 60.678 13.1403 60.7456 16.5301L55.8466 20.7996Z" fill="#ECECEF"/>
<path d="M30.4335 27.0807C28.2065 24.1601 26.9999 20.6106 26.9999 16.8751C26.9999 16.7483 27.0017 16.6217 27.0045 16.4952L31.9081 20.7554L30.4335 27.0807Z" fill="#135772"/>
<path d="M30.0687 7.16452C30.6233 6.37958 31.2489 5.63621 31.9424 4.94271C33.9379 2.94721 36.3452 1.51319 38.9726 0.719604L36.5182 6.68149L30.0687 7.16452Z" fill="#135772"/>
<path d="M57.6991 7.19045L51.2807 6.70617L48.7826 0.721191C51.4078 1.5151 53.813 2.94854 55.8071 4.94259C56.5083 5.6438 57.1399 6.39588 57.6991 7.19045Z" fill="#135772"/>
<path d="M60.7457 16.53C60.748 16.6449 60.7499 16.7598 60.7499 16.8751C60.7499 20.6043 59.5473 24.1482 57.3274 27.066L55.8467 20.7995L60.7457 16.53Z" fill="#135772"/>
<path d="M43.8753 23.4637L50.1411 18.9111L55.8466 20.7996L57.3274 27.0661C56.8641 27.675 56.3576 28.2572 55.8073 28.8075C53.9651 30.6496 51.7717 32.0123 49.3785 32.8353L43.8749 29.4449L43.8753 23.4637Z" fill="#ECECEF"/>
<path d="M55.8466 20.7996L50.141 18.9111L47.7476 11.5448L51.2809 6.7063L57.6993 7.19058C59.6167 9.91533 60.678 13.1403 60.7456 16.5301L55.8466 20.7996Z" fill="#DDDDDF"/>
<path d="M57.6992 7.19045L51.2808 6.70617L48.7827 0.721191C51.4079 1.5151 53.8131 2.94854 55.8072 4.94259C56.5084 5.6438 57.1401 6.39588 57.6992 7.19045Z" fill="#093F61"/>
<path d="M60.7457 16.5298C60.748 16.6447 60.7499 16.7596 60.7499 16.8748C60.7499 20.604 59.5473 24.148 57.3274 27.0657L55.8467 20.7993L60.7457 16.5298Z" fill="#093F61"/>
<path d="M43.8749 33.7498C45.7772 33.7498 47.6309 33.436 49.3785 32.835L43.8749 29.4446V33.7498Z" fill="#093F61"/>
<path d="M51.2809 6.70612L48.7828 0.721138C47.2119 0.246097 45.5623 0 43.8749 0V11.5446H47.7476L51.2809 6.70612Z" fill="#ECECEF"/>
<path d="M47.7475 11.5447H43.8749V23.4636L50.1411 18.911L47.7475 11.5447Z" fill="#093F61"/>
<path d="M44.9205 41.8182C44.6569 46.5379 42.9168 50.9501 40.1744 54.4305C39.9898 54.6679 37.1949 52.242 37.0103 52.453C36.6149 52.9276 38.856 56.0125 38.4343 56.4344C34.6638 60.2049 29.4606 62.6042 23.8181 62.9206C23.3699 62.9206 22.9479 60.3631 22.4997 60.3631C22.0516 60.3631 21.6295 62.9206 21.1814 62.9206C15.5388 62.6042 10.3356 60.2049 6.56517 56.4344C6.3015 56.1707 8.70091 53.2704 8.43724 52.9803C8.12084 52.6112 5.14135 54.8523 4.82494 54.4305C2.08267 50.9501 0.342529 46.5379 0.0788574 41.8182C0.0788574 41.3701 2.63638 40.948 2.63638 40.4999C2.63638 40.0517 0.0788574 39.6297 0.0788574 39.1815C0.342441 34.4619 2.08258 30.0497 4.82494 26.5692C5.16772 26.1211 8.1472 28.3357 8.51625 27.9404C8.72728 27.703 6.32796 24.8027 6.56517 24.5653C10.3356 20.7948 15.5388 18.3955 21.1814 18.0791C21.6296 18.0791 22.0517 20.6366 22.4997 20.6366C22.9479 20.6366 23.3699 18.0791 23.8181 18.0791C29.4606 18.3955 34.6638 20.7948 38.4343 24.5653C38.6715 24.8027 36.2722 27.703 36.4831 27.9404C36.8521 28.3622 39.8316 26.1211 40.1744 26.5692C42.9167 30.0497 44.6568 34.4619 44.9205 39.1815C44.9205 39.6297 42.363 40.0517 42.363 40.4999C42.363 40.948 44.9205 41.3701 44.9205 41.8182Z" fill="#FEA832"/>
<path d="M44.9205 41.8182C44.6569 46.5379 42.9168 50.9501 40.1744 54.4305C39.9899 54.6679 37.195 52.242 37.0104 52.453C36.615 52.9276 38.8561 56.0125 38.4343 56.4344C34.6638 60.2049 29.4607 62.6042 23.8181 62.9206C23.37 62.9206 22.9479 60.3631 22.4998 60.3631V20.6366C22.9479 20.6366 23.37 18.0791 23.8181 18.0791C29.4607 18.3955 34.6639 20.7948 38.4343 24.5653C38.6715 24.8027 36.2722 27.703 36.4831 27.9404C36.8522 28.3622 39.8317 26.1211 40.1744 26.5692C42.9167 30.0497 44.6569 34.4619 44.9205 39.1815C44.9205 39.6297 42.363 40.0517 42.363 40.4999C42.363 40.948 44.9205 41.3701 44.9205 41.8182Z" fill="#FE9923"/>
<path d="M44.9206 41.8183H34.5322C34.8486 46.6961 36.9579 51.1611 40.1746 54.4306C39.621 55.1426 39.0409 55.8018 38.4345 56.4345C34.664 52.664 32.2119 47.4873 31.8955 41.8183H23.8182V62.9207C23.3701 62.9471 22.948 62.9999 22.4999 62.9999C22.0517 62.9999 21.6297 62.9471 21.1815 62.9207V41.8183H13.1044C12.788 47.4873 10.3358 52.6641 6.56542 56.4345C5.95906 55.8017 5.3789 55.1425 4.82527 54.4306C8.04198 51.1611 10.1513 46.6961 10.4678 41.8183H0.0791893C0.0528222 41.3702 0 40.9481 0 40.5C0 40.0518 0.0528222 39.6298 0.0791893 39.1816H10.4677C10.1513 34.3038 8.04198 29.8388 4.82519 26.5693C5.37881 25.8573 5.95897 25.1981 6.56533 24.5654C10.3358 28.3359 12.788 33.5127 13.1043 39.1816H21.1816V18.0792C21.6298 18.0528 22.0518 18 22.4999 18C22.948 18 23.3701 18.0528 23.8182 18.0792V39.1816H31.8955C32.2119 33.5126 34.664 28.3358 38.4344 24.5654C39.0408 25.1982 39.6209 25.8574 40.1746 26.5693C36.9579 29.8388 34.8485 34.3038 34.5322 39.1816H44.9206C44.947 39.6298 44.9998 40.0518 44.9998 40.5C44.9998 40.9481 44.947 41.3702 44.9206 41.8183Z" fill="#BF6015"/>
<path d="M44.9205 41.8183H34.532C34.8485 46.6961 36.9577 51.1611 40.1745 54.4306C39.6209 55.1426 39.0407 55.8018 38.4344 56.4345C34.6639 52.664 32.2117 47.4873 31.8954 41.8183H23.8181V62.9207C23.37 62.9471 22.9479 62.9999 22.4998 62.9999V18C22.9479 18 23.37 18.0528 23.8181 18.0792V39.1816H31.8953C32.2117 33.5126 34.6639 28.3358 38.4343 24.5654C39.0407 25.1982 39.6208 25.8574 40.1744 26.5693C36.9577 29.8388 34.8484 34.3038 34.532 39.1816H44.9205C44.9469 39.6298 44.9997 40.0518 44.9997 40.5C44.9997 40.9481 44.9469 41.3702 44.9205 41.8183Z" fill="#994C10"/>
<path d="M75.5573 3C72.8817 3 70.2631 3.74134 67.9846 5.14456C65.7066 6.54734 63.8656 8.55176 62.661 10.9414C61.5175 13.2091 60.5057 15.5715 59.6523 17.9633C58.7597 20.4658 58.0233 23.0527 57.4627 25.6507L55.4105 35.1657L43.8848 46.6915L46.3083 49.115L57.834 37.5893L67.3491 35.5371C72.4501 34.4369 77.3993 32.6878 82.0589 30.3388C84.448 29.1346 86.4524 27.2936 87.8552 25.0151C89.258 22.7367 89.9998 20.1181 89.9998 17.4424C89.9998 9.47876 83.521 3 75.5573 3V3Z" fill="#3F52E9"/>
<path d="M45.0966 47.9032L46.3083 49.1149L57.834 37.5892L67.3491 35.537C72.4501 34.4369 77.3993 32.6877 82.0584 30.3388C84.448 29.1341 86.4525 27.2935 87.8552 25.0151C89.258 22.7366 89.9998 20.1181 89.9998 17.4424C89.9998 13.4608 88.3801 9.85005 85.7651 7.23462L45.0966 47.9032Z" fill="#2E3192"/>
<path d="M83.3421 9.65774C81.3479 7.66314 78.5941 6.42773 75.5574 6.42773C71.3736 6.42773 67.6049 8.74859 65.7218 12.4843C64.6422 14.6253 63.6866 16.8564 62.881 19.1143C62.0384 21.4781 61.3426 23.9203 60.8132 26.3733L59.215 33.7848L66.6265 32.1866C71.4432 31.1475 76.1162 29.4962 80.5155 27.278C84.2512 25.3949 86.5721 21.6262 86.5721 17.4424C86.5721 14.4057 85.3367 11.6519 83.3421 9.65774Z" fill="#F4F5F7"/>
<path d="M59.2146 33.7853L66.6266 32.1866C71.4433 31.1476 76.1162 29.4962 80.5156 27.278C84.2513 25.395 86.5722 21.6263 86.5722 17.4425C86.5722 14.4057 85.3367 11.6519 83.3421 9.65735L59.2146 33.7853Z" fill="#C8D6F2"/>
<path d="M36.2988 61.4998L31.5 56.701L42.9258 45.2753H47.7246V50.0741L36.2988 61.4998Z" fill="#FF9098"/>
<path d="M36.2988 61.4998L47.7246 50.0741V45.2753L33.8994 59.1004L36.2988 61.4998Z" fill="#FB4B72"/>
<path d="M131 95.2046C131 97.5364 129.036 99.5 126.705 99.5C125.477 99.5 124.373 99.0091 123.514 98.15L109.768 83.1773C109.277 82.6863 109.277 81.95 109.768 81.4591L112.959 78.2681C113.45 77.7772 114.186 77.7772 114.677 78.2681L129.65 92.1364C130.509 92.8728 131 94.1 131 95.2046Z" fill="#B06328"/>
<path d="M110.13 81.0599L112.56 78.6301L108.915 74.9854L106.485 77.4152L110.13 81.0599Z" fill="#B0C4D8"/>
<path d="M110.75 79.25L111.363 79.8636L112.591 78.6364L108.909 74.9546L106.454 77.4092L108.295 79.25C109.032 78.5136 110.013 78.5136 110.75 79.25Z" fill="#99B4CD"/>
<path d="M95.409 45.5C85.2228 45.5 77 53.7228 77 63.909C77 74.0953 85.2228 82.3181 95.409 82.3181C105.595 82.3181 113.818 74.0953 113.818 63.909C113.818 53.7228 105.595 45.5 95.409 45.5ZM95.409 78.6364C87.309 78.6364 80.6818 72.0092 80.6818 63.9092C80.6818 55.8091 87.309 49.1818 95.409 49.1818C103.509 49.1818 110.136 55.809 110.136 63.909C110.136 72.009 103.509 78.6364 95.409 78.6364Z" fill="#C4D7E5"/>
<path d="M95.409 78.6362C103.543 78.6362 110.136 72.0426 110.136 63.909C110.136 55.7754 103.543 49.1818 95.409 49.1818C87.2754 49.1818 80.6818 55.7754 80.6818 63.909C80.6818 72.0426 87.2754 78.6362 95.409 78.6362Z" fill="#70B7E5"/>
<path d="M88.1682 65.6272C88.7818 60.9636 92.4636 57.2817 97.1272 56.6681H97.25C99.3363 56.4227 99.459 53.4772 97.4954 53.1091C96.2682 52.8637 95.0408 52.8637 93.8136 52.9863C89.0272 53.7227 85.2226 57.5273 84.609 62.1909C84.3636 63.4181 84.4862 64.7681 84.7318 65.8727C85.1 67.9591 88.0454 67.7137 88.2908 65.6273C88.1682 65.7499 88.1682 65.6272 88.1682 65.6272Z" fill="#92C5EB"/>
<path d="M81.909 65.1364C81.909 57.0364 88.5362 50.4091 96.6362 50.4091C100.441 50.4091 103.754 51.8819 106.454 54.0909C103.754 51.0227 99.8272 49.1819 95.409 49.1819C87.309 49.1819 80.6818 55.8091 80.6818 63.9091C80.6818 68.3273 82.6454 72.2545 85.5908 74.9545C83.3818 72.2545 81.909 68.9409 81.909 65.1364Z" fill="#4C9CD6"/>
<path d="M95.4091 82.3182C105.595 82.3182 113.818 74.0955 113.818 63.9092C113.204 63.9092 112.591 64.4001 112.591 65.1364C112.345 69.3092 110.504 73.1137 107.682 75.9364C104.859 78.8818 100.932 80.7228 96.6364 81.091C95.9 81.091 95.4091 81.7046 95.4091 82.3182Z" fill="#B0C9DB"/>
<path d="M95.409 45.5C85.2228 45.5 77 53.7228 77 63.909C77.6136 63.909 78.2272 63.4181 78.2272 62.6818C78.4728 58.6318 80.191 54.95 82.7682 52.25C85.7136 49.1818 89.7636 47.0954 94.1818 46.7272C94.9182 46.7272 95.409 46.1136 95.409 45.5Z" fill="#E2E7F0"/>
<path d="M129.527 92.0136L128.791 91.4C129.404 92.1364 129.773 93.1182 129.773 94.1C129.773 95.6954 127.809 96.309 126.704 95.2045L113.818 82.3182C113.082 81.5818 111.977 81.5818 111.241 82.3182L110.014 83.5454L123.391 97.9044C124.127 98.6408 125.109 99.2544 126.091 99.3772C127.441 99.5 128.791 99.009 129.65 98.15C130.509 97.2909 131 95.9409 130.877 94.5909C130.877 93.609 130.264 92.75 129.527 92.0136Z" fill="#A35425"/>
<path d="M116.886 83.5455C116.764 83.5455 116.518 83.5455 116.395 83.4227L113.327 80.3545C113.082 80.1091 113.082 79.7409 113.327 79.4955C113.573 79.25 113.941 79.25 114.186 79.4955L117.254 82.5637C117.5 82.8091 117.5 83.1773 117.254 83.4227C117.254 83.5455 117.009 83.5455 116.886 83.5455Z" fill="#C97629"/>
</svg>
