<?xml version="1.0" encoding="UTF-8" standalone="no"?><!DOCTYPE svg PUBLIC "-//W3C//DTD SVG 1.1//EN" "http://www.w3.org/Graphics/SVG/1.1/DTD/svg11.dtd"><svg width="100%" height="100%" viewBox="0 0 500 500" version="1.1" style="fill-rule:evenodd;clip-rule:evenodd;stroke-miterlimit:10;"><path d="M460,500l-420,0c-22.09,0 -40,-17.91 -40,-40l0,-420c0,-22.09 17.91,-40 40,-40l420,0c22.09,0 40,17.91 40,40l0,420c0,22.09 -17.91,40 -40,40Z" style="fill:#217d2a;fill-rule:nonzero;"/><path d="M332.28,126.44l-7.36,35.79l89.56,0l-12.01,58.41l-89.55,0l-24.29,118.23l-68.22,0l24.29,-118.23l-36.69,0l-43.53,211.86l-67.97,0l43.54,-211.86l-90.7,0l11.78,-58.41l195.57,0l19.47,-94.73l197.35,0l-12.11,58.94l-129.13,0Z" style="fill:#fff;fill-rule:nonzero;stroke:#fff;stroke-width:2px;"/></svg>
